<?xml version="1.0" encoding="UTF-8"?>
<svg width="912px" height="118px" viewBox="0 0 912 118" version="1.1" xmlns="http://www.w3.org/2000/svg" xmlns:xlink="http://www.w3.org/1999/xlink">
    <!-- Generator: Sketch 45.2 (43514) - http://www.bohemiancoding.com/sketch -->
    <title>Media/TechCrunch</title>
    <desc>Created with Sketch.</desc>
    <defs></defs>
    <g id="Symbols" stroke="none" stroke-width="1" fill="none" fill-rule="evenodd">
        <g id="Media/TechCrunch" fill="#FFFFFF">
            <path d="M128.150007,51.98122 C121.591255,51.98122 117.911955,56.44518 116.952138,64.7353915 L140.955569,64.7353915 C139.507845,56.2857529 136.628393,51.98122 128.150007,51.98122 Z M166.230758,82.5992029 L116.952138,82.5992029 C117.911955,91.8459772 123.342922,95.9910829 131.189428,95.9910829 C138.548027,95.9910829 144.634869,94.3968115 152.953285,90.0922786 L163.983186,108.434371 C153.593163,114.484631 142.867205,118 129.749702,118 C104.466515,118 90.5491639,100.136189 90.5491639,74.4604472 C90.5491639,45.6041343 106.866058,30.7694386 128.949854,30.7694386 C151.985469,30.7694386 166.390727,45.9229886 166.390727,77.0112815 C166.390727,79.41066 166.390727,81.1643586 166.230758,82.5992029 Z M219.811759,117.997609 C195.176448,117.997609 180.451251,102.373749 180.451251,74.1471729 C180.451251,48.4714315 193.576752,30.7750186 220.451637,30.7750186 C236.296621,30.7750186 245.414885,38.1086672 252.773484,49.9062758 L232.93726,64.8924272 C228.938021,57.5587786 226.210541,54.0513815 219.979727,54.0513815 C212.613129,54.0513815 208.933829,61.3850301 208.933829,74.6254543 C208.933829,87.8658785 212.933068,94.7132743 220.771576,94.7132743 C226.210541,94.7132743 230.04981,91.6841586 235.328805,83.8722286 L253.573332,98.0612443 C243.81519,112.417659 234.688927,117.997609 219.811759,117.997609 Z M318.035462,116.246301 L318.035462,68.7210701 C318.035462,57.8800243 314.356162,55.0103357 308.437289,55.0103357 C302.350447,55.0103357 298.671148,57.8800243 298.671148,68.4022158 L298.671148,116.246301 L269.876629,116.246301 L269.876629,11.4787543 L298.671148,0 L298.671148,38.1030872 C303.950143,34.1174086 309.869016,30.7694386 319.795127,30.7694386 C338.199623,30.7694386 346.997949,43.0453286 346.997949,65.0542458 L346.997949,116.246301 L318.035462,116.246301 Z M415.938426,117.997609 C382.656761,117.997609 364.892142,93.4378572 364.892142,60.4284672 C364.892142,24.5493886 386.016121,2.86729717 416.098395,2.86729717 C443.621156,2.86729717 454.499086,14.6649058 462.177624,35.71726 L434.022983,46.7177329 C430.015746,36.3549686 426.176477,29.8104844 415.938426,29.8104844 C402.980892,29.8104844 397.381958,42.7320543 397.381958,60.4284672 C397.381958,77.4951429 402.812924,91.04645 416.258365,91.04645 C426.016507,91.04645 430.175716,85.7853543 436.254559,75.2631629 L462.497563,89.1333243 C454.978994,103.808593 442.493371,117.997609 415.938426,117.997609 Z M533.345677,64.0976829 C529.666378,60.1120043 525.515168,57.0828886 519.908235,57.0828886 C512.861576,57.0828886 508.542399,60.4308586 508.542399,70.6341958 L508.542399,116.246301 L479.74788,116.246301 L479.74788,32.5231372 L508.542399,32.5231372 L508.542399,38.5813686 C513.509453,33.7985543 519.108387,30.7694386 526.474985,30.7694386 C532.545829,30.7694386 536.713036,32.2042829 540.072397,34.2768358 L533.345677,64.0976829 Z M601.817444,116.246301 L601.817444,110.65838 C596.690419,114.644059 590.619575,118 580.861433,118 C562.456936,118 553.658611,105.72411 553.658611,83.7072215 L553.658611,32.5231372 L582.621098,32.5231372 L582.621098,80.0483686 C582.621098,90.881443 586.300397,93.7591029 592.219271,93.7591029 C598.138144,93.7591029 601.817444,90.881443 601.817444,80.3592515 L601.817444,32.5231372 L630.77993,32.5231372 L630.77993,116.246301 L601.817444,116.246301 Z M699.720408,116.246301 L699.720408,68.7210701 C699.720408,57.8800243 696.041108,55.0103357 690.122235,55.0103357 C684.035393,55.0103357 680.356094,57.8800243 680.356094,68.4022158 L680.356094,116.246301 L651.561575,116.246301 L651.561575,32.5231372 L680.356094,32.5231372 L680.356094,38.1030872 C685.635089,34.1174086 691.553962,30.7694386 701.480073,30.7694386 C719.884569,30.7694386 728.682895,43.0453286 728.682895,65.0542458 L728.682895,116.246301 L699.720408,116.246301 Z M784.81381,117.997609 C760.178499,117.997609 745.453302,102.373749 745.453302,74.1471729 C745.453302,48.4714315 758.578804,30.7750186 785.453688,30.7750186 C801.298672,30.7750186 810.416936,38.1086672 817.775536,49.9062758 L797.939312,64.8924272 C793.940073,57.5587786 791.212592,54.0513815 784.981778,54.0513815 C777.61518,54.0513815 773.935881,61.3850301 773.935881,74.6254543 C773.935881,87.8658785 777.935119,94.7132743 785.773627,94.7132743 C791.212592,94.7132743 795.051861,91.6841586 800.330856,83.8722286 L818.575383,98.0612443 C808.817241,112.417659 799.690978,117.997609 784.81381,117.997609 Z M883.037513,116.246301 L883.037513,68.7210701 C883.037513,57.8800243 879.358213,55.0103357 873.43934,55.0103357 C867.352499,55.0103357 863.673199,57.8800243 863.673199,68.4022158 L863.673199,116.246301 L834.87868,116.246301 L834.87868,11.4787543 L863.673199,0 L863.673199,38.1030872 C868.952194,34.1174086 874.871068,30.7694386 884.797178,30.7694386 C903.201675,30.7694386 912,43.0453286 912,65.0542458 L912,116.246301 L883.037513,116.246301 Z M62.4041213,31.5697629 L62.4041213,116.24949 L31.3620302,116.24949 L31.3620302,31.5697629 L0,31.5697629 L0,4.61860434 L93.7661515,4.61860434 L93.7661515,31.5697629 L62.4041213,31.5697629 Z"></path>
        </g>
    </g>
</svg>