<?xml version="1.0" encoding="UTF-8"?>
<svg width="482px" height="126px" viewBox="0 0 482 126" version="1.1" xmlns="http://www.w3.org/2000/svg" xmlns:xlink="http://www.w3.org/1999/xlink">
    <!-- Generator: Sketch 45.2 (43514) - http://www.bohemiancoding.com/sketch -->
    <title>Media/SportsIllustrated</title>
    <desc>Created with Sketch.</desc>
    <defs></defs>
    <g id="Symbols" stroke="none" stroke-width="1" fill="none" fill-rule="evenodd">
        <g id="Media/SportsIllustrated" transform="translate(1.000000, 1.000000)">
            <path d="M336.953748,45.8368 C335.652397,45.8368 335.240517,45.704 335.157179,45.6304 C335.129934,45.6016 335.118715,45.4976 335.118715,45.224 L335.118715,30.5168 L343.24094,30.5168 L343.24094,12.056 L335.118715,12.056 L335.118715,5.2608 L333.509656,5.2608 L306.719775,5.2608 L306.719775,48.4624 C306.719775,61.4432 318.653099,62.9536 327.624728,62.9536 L343.444477,62.9536 L343.444477,45.8368 L336.953748,45.8368 Z" id="Shape" stroke="#FFFFFF" stroke-width="2"></path>
            <path d="M385.098927,31.3632 L399.226278,31.3632 L399.226278,26.0304 C399.226278,11.2048 378.617815,11.2048 371.848225,11.2048 C348.204344,11.2048 343.239338,19.3664 343.239338,26.2112 L343.239338,28.0704 C343.239338,34.6848 346.302,39.5376 360.756291,43.8096 L343.239338,43.8096 L343.239338,47.9472 C343.239338,59.2 351.587536,63.7952 372.03894,63.7952 C386.089364,63.7952 400.458715,61.7568 400.458715,46.6016 L400.458715,44.5408 C400.460318,38.144 396.780636,34.7056 385.098927,31.3632 Z M372.862702,50.1904 C372.740901,50.224 372.495695,50.2768 372.03894,50.2768 C371.731232,50.2768 371.497245,50.1616 371.420318,50.1008 L371.420318,46.7296 C372.417166,47.1264 372.861099,47.4896 372.861099,47.9488 C372.862702,47.9472 372.862702,49.9584 372.862702,50.1904 Z M372.862702,24.8752 L372.862702,28.2 C371.861046,27.8384 371.421921,27.4992 371.421921,27.0592 L371.421921,24.8992 C371.498848,24.84 371.731232,24.7344 372.040543,24.7344 C372.614291,24.7344 372.811417,24.84 372.862702,24.8752 Z" id="Shape" stroke="#FFFFFF" stroke-width="2"></path>
            <polygon id="Shape" stroke="#FFFFFF" stroke-width="2" points="29.4358543 51.9936 0 51.9936 0 122.768 31.0385033 122.768 31.0385033 51.9936"></polygon>
            <polygon id="Shape" stroke="#FFFFFF" stroke-width="2" points="86.6183709 61.6704 59.623351 61.6704 59.623351 122.768 88.2274305 122.768 88.2274305 61.6704"></polygon>
            <polygon id="Shape" stroke="#FFFFFF" stroke-width="2" points="58.020702 61.6704 31.0385033 61.6704 31.0385033 122.768 59.623351 122.768 59.623351 61.6704"></polygon>
            <path d="M363.596185,89.9904 L363.596185,71.8656 L355.884238,71.8656 L355.884238,65.0768 L354.271974,65.0768 L327.491709,65.0768 L327.491709,108.1056 C327.491709,121.0928 338.647748,122.7696 348.388649,122.7696 L363.594583,122.7696 L363.594583,105.6608 L357.510927,105.6608 C356.469205,105.6608 356.039695,105.5392 355.917894,105.48 C355.901868,105.3984 355.884238,105.2096 355.884238,105.2096 L355.884238,89.9904 L363.596185,89.9904 Z" id="Shape" stroke="#FFFFFF" stroke-width="2"></path>
            <path d="M240.208238,89.9904 L240.208238,71.8656 L232.303974,71.8656 L232.303974,65.0768 L230.694914,65.0768 L203.905033,65.0768 L203.905033,108.1056 C203.905033,121.0928 215.075497,122.7696 224.801974,122.7696 L240.208238,122.7696 L240.208238,105.6608 L233.925854,105.6608 C232.730278,105.6608 232.392119,105.48 232.329616,105.4432 C232.318397,105.4272 232.303974,105.3728 232.303974,105.2096 L232.303974,89.9904 L240.208238,89.9904 Z" id="Shape" stroke="#FFFFFF" stroke-width="2"></path>
            <path d="M144.87306,71.8656 L118.096,71.8656 L118.096,108.8896 L117.057483,108.8896 C116.881192,108.8896 116.749775,108.8688 116.67445,108.8592 C116.66804,108.776 116.653616,108.6352 116.653616,108.4304 L116.653616,71.8656 L88.2610861,71.8656 L88.2610861,107.0896 C88.2610861,117.056 96.0163046,122.7696 109.550675,122.7696 L146.49494,122.7696 L146.49494,71.8656 L144.87306,71.8656 Z" id="Shape" stroke="#FFFFFF" stroke-width="2"></path>
            <path d="M188.551656,91.3488 L203.483536,91.3488 L203.483536,85.8432 C203.483536,71.1872 182.427934,71.1872 175.502887,71.1872 C151.682715,71.1872 146.698477,79.2496 146.698477,86.0256 L146.698477,88.048 C146.698477,94.6944 149.716265,99.56 164.016702,103.7984 L146.480517,103.7984 L146.480517,107.9328 C146.480517,119.1824 154.82551,123.7904 175.289735,123.7904 C188.606146,123.7904 203.90343,121.8224 203.90343,106.5744 L203.90343,104.5376 C203.90343,98.1168 200.246185,94.6976 188.551656,91.3488 Z M174.877854,84.8816 C174.954781,84.8128 175.175947,84.728 175.50449,84.728 C176.065417,84.728 176.268954,84.8128 176.317033,84.8512 L176.317033,88.1792 C175.305762,87.8192 174.879457,87.4864 174.879457,87.0288 C174.877854,87.0304 174.877854,84.9632 174.877854,84.8816 Z M176.124715,110.1776 C175.980477,110.2176 175.74649,110.2464 175.291338,110.2464 C174.982026,110.2464 174.762464,110.1488 174.674318,110.0944 L174.674318,106.6992 C175.675974,107.096 176.124715,107.4576 176.124715,107.9312 C176.124715,107.9312 176.124715,109.952 176.124715,110.1776 Z" id="Shape" stroke="#FFFFFF" stroke-width="2"></path>
            <path d="M392.55445,71.016 C373.30343,71.016 363.549709,76.9184 363.549709,88.5744 L363.549709,105.56 C363.549709,117.4224 373.30343,123.4432 392.55445,123.4432 C412.226967,123.4432 421.762728,117.7024 421.762728,105.9008 L421.762728,88.7488 C421.762728,80.664 416.696755,71.016 392.55445,71.016 Z M392.55445,83.8816 C392.600927,83.8816 393.584954,83.8816 393.584954,84.3216 L393.584954,88.344 L391.737099,88.344 L391.737099,84.3216 C391.737099,84.1616 392.112119,83.8816 392.55445,83.8816 Z M393.386225,109.6112 C393.330132,109.6544 393.131404,109.7504 392.55445,109.7504 C392.099298,109.7504 391.831656,109.6416 391.735497,109.5744 L391.735497,102.048 L393.384623,102.048 C393.386225,102.2336 393.386225,109.5824 393.386225,109.6112 Z" id="Shape" stroke="#FFFFFF" stroke-width="2"></path>
            <path d="M478.139113,59.1312 L451.365258,59.1312 L451.365258,71.8656 L444.228662,71.8656 C430.147788,71.8656 421.72106,77.6656 421.72106,87.3744 L421.72106,107.088 C421.72106,117.0544 429.484291,122.768 443.026675,122.768 L479.748172,122.768 L479.748172,59.1312 L478.139113,59.1312 Z M450.107179,109.2784 L450.107179,85.352 C450.107179,85.1888 450.568742,85.0544 451.148901,85.0544 L451.365258,85.0544 L451.365258,109.5728 L451.148901,109.5728 C450.530278,109.5728 450.249815,109.5072 450.140834,109.4512 C450.121603,109.3856 450.107179,109.2784 450.107179,109.2784 Z" id="Shape" stroke="#FFFFFF" stroke-width="2"></path>
            <path d="M305.075457,11.3696 C301.648993,11.3696 297.299404,12.3328 294.103722,14.752 L294.103722,12.0544 L265.711192,12.0544 L265.711192,62.952 L294.103722,62.952 L294.103722,36.0592 C294.103722,31.968 297.927642,31.3632 300.200199,31.3632 L306.684517,31.3632 L306.684517,11.3696 L305.075457,11.3696 Z" id="Shape" stroke="#FFFFFF" stroke-width="2"></path>
            <path d="M300.69702,71.016 L284.252238,71.016 C277.562781,71.016 272.248397,72.9184 268.611987,76.5488 L268.611987,71.8656 L240.206636,71.8656 L240.206636,122.768 L268.812318,122.768 L268.812318,111.9952 C271.136159,118.8208 278.586874,122.768 289.725285,122.768 L327.470874,122.768 L327.470874,88.0464 C327.470874,75.7808 319.951245,71.016 300.69702,71.016 Z M297.424411,83.7008 L298.062265,83.7008 C299.08796,83.7008 299.08796,84.1232 299.08796,84.3232 L299.08796,89.0288 L297.424411,89.0288 C297.424411,89.0048 297.424411,85.5648 297.424411,83.7008 Z M299.08796,101.8928 L299.08796,109.224 L299.065523,109.224 C298.068675,109.224 297.643974,109.128 297.450053,109.08 C297.443642,108.96 297.422808,108.7776 297.422808,108.7776 L297.422808,103.0048 C297.424411,102.4976 297.458066,101.9456 299.08796,101.8928 Z M268.812318,95.1904 C268.812318,92.256 271.084874,90.4928 274.908795,90.4928 L279.857775,90.4928 C274.179589,92.2144 270.352464,95.4224 268.812318,99.8128 L268.812318,95.1904 Z" id="Shape" stroke="#FFFFFF" stroke-width="2"></path>
            <path d="M129.907523,25.0672 L147.547881,25.0672 L147.547881,19.2416 C147.547881,5.3904 138.273351,0 114.472411,0 C93.2036556,0 80.9946755,6.952 80.9946755,19.0784 L80.9946755,21.288 C80.9946755,31.5456 86.1087285,36.7424 101.345113,40.7616 L80.9946755,40.7616 L80.9946755,45.0624 C80.9946755,61.784 94.0370331,65.1488 115.079815,65.1488 C135.758795,65.1488 148.559152,61.912 148.559152,45.7392 L148.559152,42.5136 C148.55755,32.7504 142.281576,28.3408 129.907523,25.0672 Z M112.837709,48.1248 L112.837709,43.3584 C115.575033,44.072 115.711258,44.5696 115.711258,46.0752 L115.711258,48.28 C115.711258,49.7456 115.703245,49.7504 114.273682,49.7504 C112.837709,49.7504 112.837709,49.568 112.837709,48.1248 Z M117.331536,16.528 L117.331536,22.096 C114.823391,21.2064 114.457987,20.2448 114.457987,18.7392 L114.457987,16.528 C114.457987,15.736 115.517338,15.568 115.889152,15.568 C116.551046,15.5664 117.331536,15.7296 117.331536,16.528 Z" id="Shape" stroke="#FFFFFF" stroke-width="2"></path>
            <path d="M236.400344,11.2048 C216.867258,11.2048 206.983722,17.1056 206.983722,28.744 L206.983722,46.0736 C206.983722,57.7248 216.868861,63.624 236.400344,63.624 C260.547457,63.624 265.60702,54.0784 265.60702,46.0736 L265.60702,28.744 C265.60702,17.1056 255.787589,11.2048 236.400344,11.2048 Z M235.566967,25.0992 C235.642291,24.9824 235.978848,24.736 236.400344,24.736 C236.837868,24.736 237.286609,24.9968 237.416424,25.1616 L237.416424,49.8064 C237.360331,49.9584 236.889152,50.2768 236.400344,50.2768 C235.959616,50.2768 235.566967,49.9808 235.566967,49.8128 L235.566967,25.0992 Z" id="Shape" stroke="#FFFFFF" stroke-width="2"></path>
            <path d="M184.586702,12.056 L150.282,12.056 L148.66653,12.056 L148.66653,71.1008 L177.057457,71.1008 L177.057457,62.9536 L183.370291,62.9536 C198.981695,62.9536 206.900384,57.6144 206.900384,47.0928 L206.900384,27.7328 C206.900384,13.8368 194.97347,12.056 184.586702,12.056 Z M178.724212,25.7424 L178.724212,49.2528 C178.661709,49.368 178.26906,49.7504 177.486967,49.7504 L177.05906,49.7504 L177.05906,25.2512 L177.486967,25.2512 C178.26906,25.2528 178.653695,25.6288 178.724212,25.7424 Z" id="Shape" stroke="#FFFFFF" stroke-width="2"></path>
            <g id="Fill" transform="translate(3.205298, 3.200000)" fill="#FFFFFF">
                <path d="M142.087656,39.3136 C142.087656,31.4688 138.524967,27.2624 117.435709,23.0816 C112.260755,22.04 107.983285,20.736 107.983285,15.5392 L107.983285,13.328 C107.983285,10.6144 110.408093,9.1504 112.685457,9.1504 C115.924411,9.1504 117.40045,11.3184 117.40045,13.328 L117.40045,18.6496 L141.074781,18.6496 L141.074781,16.0416 C141.074781,5.8944 136.186702,0.0176 111.267113,0.0176 C102.188106,0.0176 81.0603841,1.56 81.0603841,15.8784 L81.0603841,18.088 C81.0603841,26.9488 84.6310861,31.648 105.728358,36.0112 L107.061762,36.272 C112.49955,37.4128 115.772159,38.08 115.772159,42.8736 L115.772159,45.0784 C115.772159,48.3184 114.323364,49.792 111.069987,49.792 C106.361404,49.792 106.361404,46.1136 106.361404,44.9232 L106.361404,40.776 L81.0619868,40.776 L81.0619868,41.8624 C81.0619868,54.4768 88.8380397,58.7216 111.876119,58.7216 C134.17698,58.7216 142.089258,54.496 142.089258,42.5392 L142.089258,39.3136 L142.087656,39.3136 Z" id="Shape"></path>
                <path d="M324.41943,56.528 L336.950543,56.528 L336.950543,45.872 L333.74845,45.872 C332.213113,45.872 328.645616,45.872 328.645616,42.024 L328.645616,24.0832 L336.750212,24.0832 L336.750212,12.08 L328.645616,12.08 L328.645616,5.2864 L306.782278,5.2864 L306.782278,45.264 C306.783881,50.8176 308.880146,56.528 324.41943,56.528 Z" id="Shape"></path>
                <path d="M259.124305,25.544 C259.124305,16.04 250.409099,11.232 233.196649,11.232 C215.588344,11.232 207.039815,15.9152 207.039815,25.544 L207.039815,42.8736 C207.039815,52.3872 215.830344,57.2016 233.196649,57.2016 C250.410702,57.2016 259.124305,52.3872 259.124305,42.8736 L259.124305,25.544 Z M237.496556,46.6128 C237.496556,48.8176 235.256053,50.2944 233.195046,50.2944 C230.930503,50.2944 229.097073,48.6432 229.097073,46.6128 L229.097073,21.8192 C229.097073,19.9184 230.965762,18.328 233.195046,18.328 C235.212781,18.328 237.496556,19.7584 237.496556,21.8192 L237.496556,46.6128 Z" id="Shape"></path>
                <path d="M393.988821,41.3408 C393.988821,36.808 392.613748,33.7392 373.551841,29.3536 L373.468503,29.3408 C368.158927,28.0928 364.955232,27.3408 364.955232,23.8592 L364.955232,21.6512 C364.955232,19.7424 366.641219,18.328 368.846464,18.328 C371.886689,18.328 372.95245,20.1104 372.95245,21.6512 L372.95245,24.9424 L392.769205,24.9424 L392.769205,22.8304 C392.769205,17.8528 390.275483,11.232 368.655748,11.232 C357.099046,11.232 343.335497,13.2688 343.335497,23.0112 L343.335497,24.8704 C343.335497,29.9184 344.90449,34.472 364.386291,39.0736 C369.362517,40.2976 372.95245,41.1776 372.95245,44.7456 L372.95245,47.1248 C372.95245,48.0752 372.566212,50.2912 368.846464,50.2912 C366.641219,50.2912 364.955232,48.8656 364.955232,46.9568 L364.955232,43.8256 L343.335497,43.8256 L343.335497,44.7456 C343.335497,52.5456 347.592132,57.3696 368.846464,57.3696 C386.707987,57.3696 393.988821,53.32 393.988821,43.4 L393.988821,41.3408 L393.988821,41.3408 Z" id="Shape"></path>
                <path d="M24.5541854,116.3392 L24.5541854,52.0224 L0.0801324503,52.0224 L0.0801324503,116.3392 L24.5541854,116.3392 Z" id="Shape"></path>
                <path d="M81.7559338,116.3392 L81.7559338,61.712 L59.6954702,61.712 L59.6954702,116.3392 L81.7559338,116.3392 Z" id="Shape"></path>
                <path d="M53.1582649,116.3392 L53.1582649,61.712 L31.0978013,61.712 L31.0978013,116.3392 L53.1582649,116.3392 Z" id="Shape"></path>
                <path d="M345.184954,116.3392 L357.127894,116.3392 L357.127894,105.6896 L354.307232,105.6896 C353.103642,105.6896 349.419152,105.6896 349.419152,102.0096 L349.419152,83.56 L357.127894,83.56 L357.127894,71.8976 L349.419152,71.8976 L349.419152,65.1072 L327.55902,65.1072 L327.55902,104.9056 C327.560623,113.0304 332.668265,116.3392 345.184954,116.3392 Z" id="Shape"></path>
                <path d="M221.596675,116.3392 L233.744755,116.3392 L233.744755,105.6896 L230.720556,105.6896 C226.677073,105.6896 225.811642,103.6976 225.811642,102.0096 L225.811642,83.56 L233.744755,83.56 L233.744755,71.8976 L225.811642,71.8976 L225.811642,65.1072 L203.965934,65.1072 L203.965934,104.9056 C203.964331,113.0304 209.078384,116.3392 221.596675,116.3392 Z" id="Shape"></path>
                <path d="M106.345377,116.3392 L140.00902,116.3392 L140.00902,71.8976 L118.164914,71.8976 L118.164914,108.9104 L113.852185,108.9104 C112.169404,108.9104 110.162887,108.2768 110.162887,105.232 L110.162887,71.8976 L88.3155762,71.8976 L88.3155762,103.8896 C88.3155762,114.7264 99.6238675,116.3392 106.345377,116.3392 Z" id="Shape"></path>
                <path d="M197.427126,101.336 C197.427126,96.784 196.04404,93.7344 176.98694,89.3408 L176.885974,89.3232 C171.606848,88.0768 168.388728,87.3312 168.388728,83.8288 L168.388728,81.6192 C168.388728,79.728 170.074715,78.288 172.299192,78.288 C175.333007,78.288 176.390755,80.0896 176.390755,81.6192 L176.390755,84.9136 L197.021656,84.9136 L197.021656,82.6416 C197.021656,74.9456 188.92347,71.1936 172.300795,71.1936 C160.655947,71.1936 146.762583,73.2224 146.762583,82.8256 L146.762583,84.848 C146.762583,88.9904 146.762583,94.1264 167.614649,99.064 C172.597285,100.2832 176.193629,101.16 176.193629,104.7328 L176.193629,107.1072 C176.193629,108.0576 175.79457,110.2768 172.089245,110.2768 C169.869576,110.2768 168.21404,108.832 168.21404,106.9344 L168.21404,103.816 L146.565457,103.816 L146.565457,104.7312 C146.565457,112.5296 150.82049,117.36 172.089245,117.36 C190.07257,117.36 197.431934,113.304 197.431934,103.3744 L197.431934,101.336 L197.427126,101.336 Z" id="Shape"></path>
                <path d="M200.424079,24.5328 C200.424079,15.6928 194.910967,12.0784 181.381404,12.0784 L148.741854,12.0784 L148.741854,64.688 L170.589166,64.688 L170.589166,56.5264 L180.166596,56.5264 C193.797126,56.5264 200.425682,52.4 200.425682,43.8912 L200.425682,24.5328 L200.424079,24.5328 Z M178.777099,46.1072 C178.777099,48.12 176.76257,49.7936 174.281669,49.7936 L170.589166,49.7936 L170.589166,18.8176 L172.246305,18.8176 L174.281669,18.8176 C176.76257,18.8176 178.777099,20.4592 178.777099,22.4928 L178.777099,46.1072 Z" id="Shape"></path>
                <path d="M415.294437,100.9376 L393.450331,100.9376 L393.450331,106.432 C393.450331,107.9712 392.357325,109.7584 389.349152,109.7584 C386.93396,109.7584 385.251179,108.3888 385.251179,106.432 L385.251179,95.6224 L415.292834,95.6224 L415.292834,85.5488 C415.292834,75.9104 406.571219,71.0448 389.349152,71.0448 C372.022914,71.0448 363.607404,75.728 363.607404,85.3744 L363.607404,102.36 C363.607404,112.2208 372.022914,117.0176 389.349152,117.0176 C412.605192,117.0176 415.292834,108.832 415.292834,102.7008 C415.294437,102.7008 415.294437,101.8096 415.294437,100.9376 Z M385.252781,81.1216 C385.252781,79.1056 387.095828,77.44 389.350755,77.44 C391.842874,77.44 393.653868,78.9936 393.653868,81.1216 L393.653868,88.3552 L385.254384,88.3552 L385.254384,81.1216 L385.252781,81.1216 Z" id="Shape"></path>
                <path d="M421.788371,103.8896 C421.788371,114.7264 433.085444,116.3392 439.821377,116.3392 L473.279881,116.3392 L473.279881,59.1536 L451.419748,59.1536 L451.419748,71.8976 L441.023364,71.8976 C435.253828,71.8976 421.788371,73.088 421.788371,84.176 L421.788371,103.8896 Z M443.629272,82.152 C443.629272,80.3872 444.970689,78.648 447.943603,78.648 L449.76902,78.648 L451.419748,78.648 L451.419748,109.592 L447.943603,109.592 C444.199815,109.592 443.629272,107.4032 443.629272,106.08 L443.629272,82.152 Z" id="Shape"></path>
                <path d="M300.206609,24.9424 L300.206609,11.5008 C297.030159,11.8192 293.316821,13.3552 290.72694,16.232 C288.121033,19.1072 287.611391,19.896 287.611391,19.896 L287.611391,12.08 L265.780106,12.08 L265.780106,56.5296 L287.611391,56.5296 L287.611391,32.8608 C287.611391,27.9712 291.215748,24.944 296.994901,24.944 C296.994901,24.9424 298.76102,24.9424 300.206609,24.9424 Z" id="Shape"></path>
                <path d="M286.519987,116.3392 L320.989762,116.3392 L320.989762,84.8464 C320.989762,77.5776 319.193192,71.0432 297.491722,71.0432 L281.04694,71.0432 C273.338199,71.0432 267.62155,75.2656 265.265656,77.6688 C263.324848,79.6752 263.130927,79.9408 262.121258,81.7696 L262.121258,71.8976 L240.28196,71.8976 L240.28196,116.3392 L262.334411,116.3392 L262.334411,91.9904 C262.334411,87.1728 266.018901,84.064 271.703497,84.064 L290.954517,84.064 L290.954517,77.2816 L294.85857,77.2816 C297.381139,77.2816 299.150464,78.8544 299.150464,81.1216 L299.150464,89.056 L287.739603,89.056 C281.838649,89.056 268.091126,90.2384 268.091126,101.336 L268.091126,103.8896 C268.089523,115.12 280.98604,116.3392 286.519987,116.3392 Z M290.954517,99.8032 C290.954517,97.072 292.856861,95.4512 296.076583,95.4512 L297.491722,95.4512 L299.148861,95.4512 L299.148861,109.2544 L295.860225,109.2544 C293.435417,109.2544 290.952914,108.8192 290.952914,105.576 L290.952914,99.8032 L290.954517,99.8032 Z" id="Shape"></path>
            </g>
        </g>
    </g>
</svg>