<?xml version="1.0" encoding="UTF-8"?>
<svg width="760px" height="130px" viewBox="0 0 760 130" version="1.1" xmlns="http://www.w3.org/2000/svg" xmlns:xlink="http://www.w3.org/1999/xlink">
    <!-- Generator: Sketch 45.2 (43514) - http://www.bohemiancoding.com/sketch -->
    <title>Media/Mashable</title>
    <desc>Created with Sketch.</desc>
    <defs></defs>
    <g id="Symbols" stroke="none" stroke-width="1" fill="none" fill-rule="evenodd">
        <g id="Media/Mashable" fill="#FFFFFF">
            <path d="M112.096167,127.695354 L112.096167,43.2545956 L79.9189641,127.695354 L65.3501368,127.695354 L32.9631906,43.2545956 L32.9631906,127.695354 L0,127.695354 L0,0 L45.8026575,0 L72.6347072,70.4589073 L99.2567004,0 L145.059671,0 L145.059671,127.695354 L112.096167,127.695354 Z M211.322456,127.695887 L211.322456,118.505593 C205.584153,125.391774 194.447711,130 182.577952,130 C168.401962,130 150.767564,120.233678 150.767564,99.5489777 C150.767564,77.1624767 168.401962,69.6741404 182.577952,69.6741404 C194.840861,69.6741404 205.76756,73.7060564 211.322456,80.5922682 L211.322456,71.4021939 C211.322456,63.3637376 204.431037,57.8130392 192.534943,57.8130392 C183.337604,57.8130392 174.140579,61.4524151 166.672601,67.7625047 L155.745903,47.2874514 C167.641996,37.1284015 183.547347,32.9389055 197.723024,32.9389055 C219.943237,32.9389055 240.826926,41.1606308 240.826926,69.8834116 L240.826926,127.695887 L211.322456,127.695887 Z M211.322456,103.947745 L211.322456,95.7262076 C208.256886,91.3274405 201.365466,89.2065336 194.840861,89.2065336 C187.189476,89.2065336 180.088626,92.6629539 180.088626,99.9417371 C180.088626,107.220646 187.189476,110.650656 194.840861,110.650656 C201.365466,110.650656 208.256886,108.372702 211.322456,103.947745 Z M242.923102,115.635915 L255.186324,94.5846146 C262.077744,100.711529 276.829979,107.02165 287.756678,107.02165 C296.560866,107.02165 300.202994,104.534268 300.202994,100.502039 C300.202994,89.0339162 246.382136,100.894798 246.382136,63.3743891 C246.382136,47.0885185 260.557813,32.9232415 286.027004,32.9232415 C301.748947,32.9232415 314.771194,37.8981309 324.728498,45.1768828 L313.435298,66.0451027 C307.880401,60.67736 297.346853,55.912055 286.236747,55.912055 C279.319305,55.912055 274.733803,58.5827686 274.733803,62.2221446 C274.733803,72.3551923 328.371567,61.8296045 328.371567,99.7427415 C328.371567,117.364 312.859053,129.984305 286.420154,129.984305 C269.755151,129.984305 252.696998,124.43345 242.923102,115.635915 Z M394.849739,127.695887 L394.849739,73.8896386 C394.849739,62.6046597 388.902319,58.9649705 379.521886,58.9649705 C370.900165,58.9649705 365.162802,63.7565909 361.704708,67.9720891 L361.704708,127.695887 L332.199611,127.695887 L332.199611,0.000626560376 L361.704708,0.000626560376 L361.704708,46.5280603 C367.260232,40.0083863 378.186303,32.9389055 393.699131,32.9389055 C414.764347,32.9389055 424.354835,44.8000067 424.354835,61.8452685 L424.354835,127.695887 L394.849739,127.695887 Z M489.108663,127.695887 L489.108663,118.505593 C483.368164,125.391774 472.232036,130 460.362277,130 C446.188168,130 428.55283,120.233678 428.55283,99.5489777 C428.55283,77.1624767 446.188168,69.6741404 460.362277,69.6741404 C472.627067,69.6741404 483.553139,73.7060564 489.108663,80.5922682 L489.108663,71.4021939 C489.108663,63.3637376 482.217556,57.8130392 470.319581,57.8130392 C461.124124,57.8130392 451.925531,61.4524151 444.457553,67.7625047 L433.531482,47.2874514 C445.426321,37.1284015 461.33418,32.9389055 475.50829,32.9389055 C497.727248,32.9389055 518.613759,41.1606308 518.613759,69.8834116 L518.613759,127.695887 L489.108663,127.695887 Z M489.108663,103.947745 L489.108663,95.7262076 C486.042465,91.3274405 479.151359,89.2065336 472.627067,89.2065336 C464.974114,89.2065336 457.872951,92.6629539 457.872951,99.9417371 C457.872951,107.220646 464.974114,110.650656 472.627067,110.650656 C479.151359,110.650656 486.042465,108.372702 489.108663,103.947745 Z M528.752903,127.695887 L528.752903,0.000626560376 L558.258,0.000626560376 L558.258,46.1352069 C565.541003,36.9451326 575.498307,32.9389055 585.665667,32.9389055 C608.856529,32.9389055 626.463651,51.1100963 626.463651,81.377975 C626.463651,112.771469 608.461497,130 585.665667,130 C575.316467,130 565.936034,125.784502 558.258,116.986968 L558.258,127.695887 L528.752903,127.695887 Z M575.893338,103.947745 C587.578121,103.947745 596.381682,95.3333542 596.381682,81.377975 C596.381682,67.5792358 587.578121,58.9649705 575.893338,58.9649705 C569.575968,58.9649705 561.901069,62.4213908 558.258,67.3959669 L558.258,95.7262076 C561.901069,100.701034 569.575968,103.947745 575.893338,103.947745 Z M629.918609,127.698487 L629.918609,0.00328944198 L659.423173,0.00328944198 L659.423173,127.698487 L629.918609,127.698487 Z M663.627971,81.3638773 C663.627971,54.5521057 683.7495,32.9248079 712.677725,32.9248079 C740.085392,32.9248079 760,53.0336367 760,84.427131 L760,91.1300739 L694.101835,91.1300739 C696.19613,99.3515486 703.874164,106.263919 717.264481,106.263919 C723.788772,106.263919 734.533004,103.383778 739.878471,98.4088258 L752.716997,117.732136 C743.518405,125.979832 728.190552,129.985871 714.016443,129.985871 C685.480114,129.985871 663.627971,111.421984 663.627971,81.3638773 Z M712.677725,56.6730126 C699.839199,56.6730126 694.860547,64.3186156 693.706804,71.0212452 L731.833621,71.0212452 C731.071775,64.5018845 726.278098,56.6730126 712.677725,56.6730126 Z" id="Combined-Shape"></path>
        </g>
    </g>
</svg>