<?xml version="1.0" encoding="UTF-8"?>
<svg width="460px" height="120px" viewBox="0 0 460 120" version="1.1" xmlns="http://www.w3.org/2000/svg" xmlns:xlink="http://www.w3.org/1999/xlink">
    <!-- Generator: Sketch 45.2 (43514) - http://www.bohemiancoding.com/sketch -->
    <title>Media/Forbes</title>
    <desc>Created with Sketch.</desc>
    <defs>
        <path d="M114.291558,119.671062 C106.272674,118.50667 99.2590808,115.122146 93.9031781,109.832316 C89.4356758,105.419933 86.53912,100.567422 84.4039141,93.918492 C81.0703277,83.5378585 81.069157,70.1916025 84.4009377,60.0226835 C87.6298326,50.1677831 94.8999407,41.5895409 103.797728,37.1357667 C116.11986,30.967941 133.462834,31.3553803 144.875139,38.0534304 C155.145853,44.0814628 161.367374,54.7924479 163.098196,69.4262968 C163.626677,73.8945276 163.283788,83.3319609 162.451416,87.2277187 C159.044648,103.172438 149.122676,114.310737 134.586243,118.508856 C133.019828,118.961235 130.590777,119.490503 129.188351,119.685001 C126.220697,120.096582 117.163642,120.088107 114.291555,119.671052 L114.291558,119.671062 Z M126.28824,113.268012 L126.288237,113.268012 C117.250482,115.944246 110.779008,107.36022 108.272459,89.3711457 C107.462499,83.5581749 107.466772,67.7195155 108.280099,61.0712678 C110.049528,46.6076531 114.528006,39.2624618 121.584178,39.2511511 C124.763536,39.2460497 126.526824,40.0214757 129.013553,42.5183043 C134.935214,48.4640126 137.740647,59.8195591 137.696623,77.6647366 C137.661496,91.9037696 136.241252,100.871057 133.060746,106.935234 C131.520092,109.872751 128.63097,112.574287 126.28824,113.268012 Z M256.322856,119.666838 C253.042097,119.33518 243.016403,117.671508 239.514296,116.877609 L237.091422,116.328368 L237.280358,103.426833 C237.735243,72.3650902 237.792458,55.4085281 237.498028,38.9181713 C237.209603,22.7640335 237.125492,21.0560255 236.500753,18.6664704 C235.70915,15.6386984 234.566599,13.5266808 233.192416,12.5509764 C232.658571,12.171936 231.208174,11.6347668 229.969315,11.3572722 C225.851457,10.4349061 226.07514,10.5828091 225.965204,8.7096353 C225.901877,7.63062754 226.019125,6.91780616 226.295909,6.69908097 C226.66697,6.40586016 260.44124,-0.0180041175 261.516981,3.79328018e-05 C261.826095,0.00522172786 261.86988,4.31136263 261.711515,19.1326922 C261.599119,29.6519725 261.58468,38.2586553 261.679437,38.2586553 C261.774184,38.2586553 263.008307,37.7258027 264.42193,37.0745405 C268.683023,35.1114351 272.61046,34.2596306 278.314771,34.0613834 C282.112661,33.9293911 283.871881,34.0120483 285.820417,34.414043 C298.560134,37.0423133 307.987824,47.4400085 311.282483,62.4958685 C312.141953,66.4234512 312.461705,76.1844694 311.89106,81.0736693 C311.404692,85.240808 310.017082,90.8554953 308.573096,94.499153 C303.124361,108.248139 291.433843,117.217959 275.925355,119.548893 C272.353033,120.085815 261.135069,120.15331 256.322863,119.666838 L256.322856,119.666838 Z M269.577052,113.108808 L269.577052,113.108808 C267.834711,113.438289 267.31341,113.447114 264.161798,113.200471 C262.8229,113.095691 262.525798,112.945638 262.255949,112.237908 C261.833093,111.128899 261.329365,72.4774849 261.536562,57.0387264 L261.69831,44.986421 L263.888489,44.3430433 C265.351689,43.9132169 267.072537,43.6996624 269.072918,43.6996624 C271.869875,43.6996624 272.233512,43.78166 274.59161,44.9441064 C280.276231,47.7463866 284.172949,54.7059029 285.986256,65.2948907 C286.656728,69.2101767 286.738194,79.8988405 286.133317,84.5896546 C284.648215,96.1065584 280.872212,105.402011 275.849872,109.904593 C273.845982,111.701098 271.979554,112.654488 269.577052,113.108808 Z M351.40066,119.503624 C334.994168,116.552817 323.260867,104.951581 319.426966,87.8897375 C318.933851,85.6952574 318.715784,83.2398298 318.592133,78.4891316 C318.396488,70.9732608 319.00955,66.3083953 320.95466,60.5121795 C324.689514,49.3827118 331.383163,41.4962721 341.106298,36.7695308 C351.369078,31.7804548 365.400312,31.4536877 374.482772,35.9922385 C384.708678,41.1021883 390.725862,51.3052339 392.252332,66.1232065 C392.457833,68.1182424 392.576953,70.4925 392.517062,71.3993345 L392.408128,73.0481246 L367.935929,73.1326053 L343.463731,73.2170827 L343.557023,76.1004273 C343.773106,82.7793162 345.21313,88.6867956 347.877094,93.8228787 C349.087938,96.1573741 350.051581,97.4301246 352.392776,99.787093 C357.681615,105.111547 362.943006,107.173095 371.242983,107.173095 C377.260994,107.173095 381.588737,105.975589 386.114738,103.058015 C387.382431,102.240812 388.666924,101.572192 388.969155,101.572192 C389.660032,101.572192 391.250659,103.614043 391.250659,104.500891 C391.250659,105.954013 386.505863,110.639894 381.877939,113.757241 C378.087626,116.310373 372.076559,118.622131 366.864179,119.531281 C363.213655,120.168011 355.013121,120.153343 351.40066,119.503614 L351.40066,119.503624 Z M342.85067,66.6958676 C342.601847,66.2944268 343.219141,60.4248464 343.829921,57.3846195 C345.302056,50.0566415 347.659159,44.7649225 350.902618,41.5063759 C352.647287,39.7536033 353.443361,39.2072009 354.866221,38.7858724 C355.84544,38.495903 356.95446,38.259483 357.330704,38.2604954 C358.848179,38.2645844 360.63875,39.03666 361.971426,40.2615461 C365.548336,43.5491971 367.594972,50.6091609 368.000516,61.0592843 L368.200725,66.2178602 L364.761257,66.4089715 C357.857518,66.7925757 343.030937,66.9867141 342.85067,66.6958676 L342.85067,66.6958676 Z M417.541737,119.8234 C411.64979,119.193668 402.27297,117.146642 399.15088,115.808544 L397.625964,115.15499 L397.418017,107.621635 C397.303659,103.478289 397.17174,97.93843 397.124879,95.3108358 L397.039657,90.5333942 L397.953594,90.0966166 C398.456233,89.8563879 399.470738,89.631981 400.207979,89.5979301 L401.548461,89.5360247 L402.690519,92.3388589 C407.146079,103.27371 412.371555,109.169598 419.196752,110.962793 C421.800395,111.646853 426.682037,111.652867 428.60952,110.9744 C434.008748,109.07388 436.969487,104.997467 436.995249,99.4287779 C437.025674,92.8337333 433.39023,89.6649403 419.655771,84.3153421 C411.146721,81.0010533 408.178475,79.2951393 404.644227,75.6879033 C400.83169,71.7966204 399.001798,67.3671823 398.658261,61.198185 C398.243127,53.7435503 400.583032,47.4591938 405.767798,42.1038941 C410.985469,36.7146162 417.759076,33.7937287 426.986319,32.954113 C435.111915,32.2147395 447.584535,33.9331701 454.119406,36.692407 L455.311631,37.1957958 L455.524242,43.9101964 C455.641179,47.6031134 455.762118,52.5535625 455.793006,54.9111937 L455.84916,59.1977905 L454.248083,59.7905536 C451.716666,60.7277621 451.55042,60.6103056 450.142243,56.8899956 C446.195109,46.4618011 441.609119,41.527487 434.463369,40.0202259 C430.108442,39.1016388 426.470683,40.0891816 423.826627,42.907798 C421.763852,45.1067529 420.959048,47.0595106 420.764031,50.3386637 C420.552776,53.8915721 421.189549,55.8119838 423.366583,58.1871515 C426.049827,61.1146606 430.445894,63.6417149 439.202939,67.2906158 C449.928773,71.7598788 455.046604,75.5541436 457.828796,81.0995454 C459.635704,84.7009743 460.147272,87.5775095 459.965516,93.1143211 C459.8291,97.2690312 459.69576,98.1230648 458.747826,100.912689 C455.657252,110.007639 448.680294,115.995282 437.902143,118.80246 C434.251387,119.753304 433.730261,119.802503 426.470782,119.881758 C422.287359,119.927429 418.269289,119.90118 417.541737,119.823413 L417.541737,119.8234 Z M0.43956698,117.8417 C0.164610257,117.731069 0.0261852522,116.90925 0.0261852522,115.387479 C0.0261852522,112.655216 -0.148461914,112.77755 5.15211867,111.796922 C9.21752822,111.044807 10.6720026,110.275686 12.467248,107.928703 C15.9480157,103.378184 16.7003572,94.6163688 16.7081553,58.5387725 C16.7154804,24.6576325 16.0608987,17.5302497 12.4609947,12.2937717 C10.8638256,9.97050459 8.17224027,8.70897908 3.66394445,8.17066563 L0.191537943,7.75604111 L0.0957689716,5.05292902 L0,2.34981694 L1.08788512,2.1565161 C1.68622177,2.05020212 22.7084572,2.00527919 47.8039657,2.05668516 L93.4321644,2.15015507 L93.646101,3.46918708 C93.763766,4.19465468 93.956888,11.6359507 94.0752607,20.0054 L94.2904837,35.2225767 L91.9379052,35.9351046 C88.396626,37.0076557 88.4180524,37.0207207 86.8250049,32.8176493 C82.9119996,22.4936352 78.425022,16.5447712 72.2853112,13.5408176 C68.0507776,11.4690041 66.0928629,11.2185001 54.134252,11.2185001 L43.7268875,11.2185001 L43.5474831,12.9497296 C43.2110499,16.1962104 42.679828,37.0799716 42.6835087,46.9148029 L42.6871795,56.7251034 L45.7462043,56.7076263 C47.428668,56.6979973 50.7462779,56.5745524 53.1186723,56.4332709 C56.6850223,56.2208837 57.7446718,56.0321104 59.2367219,55.3433647 C62.9026803,53.6511158 65.3967082,49.9266344 66.9246531,43.8625199 L67.7134747,40.7318403 L70.4127747,40.6360654 L73.1120747,40.5402905 L73.1120747,60.3524415 L73.1120747,80.1645924 L70.4117396,80.0688175 L67.7114045,79.9730426 L66.944922,76.8403416 C65.5047761,70.954303 62.7332302,66.7404409 59.3084453,65.229836 C57.7268038,64.5322066 53.8131801,64.1357056 46.2422624,63.906072 L42.6871795,63.7982411 L42.6871795,71.2413211 C42.6871795,79.3522699 43.1343527,90.3249113 43.7075908,96.2799418 C44.5067139,104.581593 46.634231,109.168995 50.4550455,110.828961 C51.1846378,111.145937 53.4929779,111.660801 55.5846894,111.973102 C57.676401,112.285406 59.6482318,112.675025 59.9665358,112.838925 C60.7737711,113.254585 60.8214092,117.554111 60.0221637,117.859932 C59.3966775,118.099267 1.03533206,118.081407 0.43956698,117.841696 L0.43956698,117.8417 Z M163.461,117.779418 C163.159364,117.587779 163.060804,116.827265 163.130295,115.227629 L163.229291,112.948843 L164.38676,112.703071 C165.023368,112.567896 166.390749,112.299592 167.425387,112.106839 C170.627429,111.510293 172.467626,109.777181 173.503077,106.382827 C174.346651,103.617463 174.718519,94.7706131 174.737931,77.0052206 C174.761676,55.2775054 174.30774,50.1464379 172.104478,47.2377778 C170.910364,45.6613531 170.049577,45.2130438 167.152112,44.6585228 C165.722112,44.3848467 164.217274,44.0914149 163.808026,44.0064527 C163.145302,43.8688678 163.063939,43.6535688 163.063939,42.0375204 C163.063939,40.4661016 163.163607,40.1821964 163.808026,39.9179613 C164.79781,39.512115 197.559156,32.9825273 198.605653,32.9825273 L199.422079,32.9825273 L199.261981,37.8464578 C199.173924,40.5216196 199.033149,44.416886 198.949147,46.5026054 L198.796414,50.2948224 L199.983272,48.160622 C203.782697,41.3285374 208.043604,37.0874703 213.709503,34.4983028 C216.819794,33.0769832 218.895013,32.6527703 222.737704,32.6527703 C227.2949,32.6527703 231.850658,34.1354701 231.850658,35.6186391 C231.850658,36.615923 223.821581,57.7703374 223.378753,57.9397769 C223.16273,58.0224374 221.594939,57.4244872 219.894772,56.6110072 C216.349081,54.914488 213.022582,54.0849158 209.793466,54.0919133 C205.77227,54.1006189 201.280345,55.5775555 199.506818,57.474129 C198.748204,58.2853732 198.744632,58.334151 198.556153,70.44977 C198.3695,82.4479918 198.770503,97.0832851 199.447182,102.969515 C200.023651,107.984066 201.359867,110.452878 204.11962,111.602385 C205.040303,111.985874 210.865384,112.781688 212.766332,112.783687 C212.9104,112.783839 212.984809,113.933995 212.931684,115.339588 L212.835099,117.895213 L188.3629,117.973817 C174.903191,118.017049 163.697335,117.92957 163.461,117.779418 L163.461,117.779418 Z" id="path-1"></path>
    </defs>
    <g id="Symbols" stroke="none" stroke-width="1" fill="none" fill-rule="evenodd">
        <g id="Media/Forbes">
            <mask id="mask-2" fill="white">
                <use xlink:href="#path-1"></use>
            </mask>
            <use id="Mask" fill="#FFFFFF" xlink:href="#path-1"></use>
        </g>
    </g>
</svg>