<?xml version="1.0" encoding="UTF-8"?>
<svg width="267px" height="197px" viewBox="0 0 267 197" version="1.1" xmlns="http://www.w3.org/2000/svg" xmlns:xlink="http://www.w3.org/1999/xlink">
    <!-- Generator: Sketch 45.2 (43514) - http://www.bohemiancoding.com/sketch -->
    <title>Media/CNBC</title>
    <desc>Created with Sketch.</desc>
    <defs></defs>
    <g id="Symbols" stroke="none" stroke-width="1" fill="none" fill-rule="evenodd">
        <g id="Media/CNBC" transform="translate(-1.000000, -3.000000)" fill="#FFFFFF">
            <g id="Group">
                <path d="M47.6374891,168.936275 C46.6554745,164.15098 42.7499124,162.881373 38.3777956,162.47549 C24.2569343,161.160784 21.7529927,171.764706 21.7529927,176.242157 C21.7529927,183.901961 23.9791533,190.235294 37.8427737,190.235294 C40.3995328,190.235294 47.4584964,187.591176 47.4584964,183.296078 L67.3961314,183.296078 C66.5921314,196.037255 45.2704818,199.089216 35.9716642,199.089216 C16.7040292,199.089216 0.208335766,195.485294 1.00548905,176.413725 C1.57474453,162.80098 14.3771241,153.248039 39.8439708,153.845098 C54.040146,154.176471 67.6748905,158.622549 67.7335766,168.936275 L47.6374891,168.936275 Z M247.334657,168.936275 C246.352642,164.15098 242.446102,162.881373 238.074964,162.47549 C223.953124,161.159804 221.451139,171.764706 221.451139,176.241176 C221.451139,183.90098 223.676321,190.234314 237.541898,190.234314 C240.095723,190.234314 247.15273,187.590196 247.15273,183.295098 L267.093299,183.295098 C266.293212,196.036275 244.96765,199.088235 235.667854,199.088235 C216.400219,199.088235 199.904526,195.484314 200.702657,176.412745 C201.271912,162.8 214.077226,153.247059 239.538204,153.844118 C253.736336,154.17549 267.372058,158.621569 267.431723,168.935294 L247.334657,168.935294 L247.334657,168.936275 Z M71.2928905,154.755882 L97.1754307,154.755882 L119.259022,185.863725 L119.438015,185.863725 L119.438015,154.755882 L136.026628,154.755882 L136.026628,197.95098 L111.229781,197.95098 L88.0624526,166.843137 L87.8805255,166.843137 L87.8805255,197.95098 L71.2919124,197.95098 L71.2919124,154.755882 L71.2928905,154.755882 Z M141.146015,154.755882 L172.585153,154.755882 C187.693898,154.755882 196.580934,158.997059 196.580934,165.403922 C196.580934,169.187255 192.861212,173.859804 184.566905,175.234314 L184.566905,175.354902 C194.554307,175.951961 198.240774,182.296078 198.240774,186.09902 C198.240774,193.712745 189.575766,197.95 172.676117,197.95 L141.146015,197.95 L141.146015,154.755882 L141.146015,154.755882 Z M159.345562,171.539216 L164.556891,171.539216 C172.584175,171.539216 176.842832,170.910784 176.842832,167.559804 C176.842832,163.971569 173.299168,162.772549 166.073927,162.772549 L159.345562,162.772549 L159.345562,171.539216 L159.345562,171.539216 Z M159.345562,188.89902 L164.556891,188.89902 C174.231299,188.89902 177.780832,187.880392 177.780832,184.531373 C177.780832,180.941176 173.299168,179.742157 166.073927,179.742157 L159.345562,179.742157 L159.345562,188.89902 L159.345562,188.89902 Z M223.653825,88.5490196 L149.548891,138.222549 L174.506146,78.7617647 L186.346073,51.0715686 C191.142686,42.122549 200.173504,36.4176471 210.026905,36.2598039 C219.465591,36.2598039 227.837168,40.8147059 233.14435,48.9794118 C238.608029,57.1441176 238.913197,70.4921569 233.450496,78.7627451 C231.003285,82.6333333 227.379416,86.0882353 223.653825,88.5490196 Z M186.755898,41.6509804 L150.111299,128.485294 L148.477869,119.012745 L137.454657,47.8264706 C136.993971,43.4813725 138.779007,39.8186275 142.247358,37.4107843 L147.506613,34.2705882 C147.813737,33.1705882 146.282029,32.804902 145.566058,32.4382353 L135.257839,32.3343137 C134.596642,22.0735294 139.086131,12.7598039 147.76092,7.15882353 C154.499066,2.75980392 164.757401,1.60980392 172.259445,5.16862745 C182.00819,9.14705882 188.793285,19.5637255 188.946847,30.1882353 C188.896964,34.1137255 188.23381,38.1441176 186.755898,41.6509804 Z M116.377533,128.801961 L80.2953431,41.7558824 C76.4152117,32.4382353 78.0476642,20.1901961 84.6831095,12.6519608 C91.7763066,4.74803922 101.779358,1.39803922 112.089533,4.06960784 C120.816161,6.21470588 128.981358,14.5892157 131.126336,23.5392157 C132.146496,26.8901961 131.991956,30.9186275 131.789489,34.5833333 L116.377533,128.801961 Z M39.2629781,85.4088235 C31.8626569,78.9715686 28.5459124,70.3862745 29.6159562,60.4401961 C30.6869781,50.3911765 38.5998248,40.5509804 48.0404672,37.5156863 C57.7373723,34.4794118 68.2998978,36.8872549 75.3451679,44.1627451 C78.3049051,46.9901961 80.1408029,50.3392157 81.6715328,53.7931373 L116.532073,138.378431 L39.2629781,85.4088235 Z M31.3423066,147.201961 C21.6991971,146.106863 14.2665985,140.896078 9.73407299,132.034314 C5.14383942,123.088235 6.33614599,110.394118 12.5079708,102.460784 C19.2324234,94.3833333 28.963562,90.3196078 38.7680584,92.3137255 C42.7636058,92.9598039 46.1145839,94.6833333 49.2650511,96.6676471 L124.283533,147.221569 L31.3423066,147.201961 Z M235.007635,147.201961 L142.069343,147.221569 L217.084891,96.6676471 C220.236336,94.6833333 223.585358,92.9598039 227.579927,92.3137255 C237.38638,90.3196078 247.117518,94.3833333 253.843927,102.460784 C260.014774,110.394118 261.208058,123.088235 256.617825,132.034314 C252.082365,140.896078 244.654657,146.106863 235.007635,147.201961 Z" id="Combined-Shape"></path>
            </g>
        </g>
    </g>
</svg>