<?xml version="1.0" encoding="UTF-8"?>
<svg width="500px" height="93px" viewBox="0 0 500 93" version="1.1" xmlns="http://www.w3.org/2000/svg" xmlns:xlink="http://www.w3.org/1999/xlink">
    <!-- Generator: Sketch 45.2 (43514) - http://www.bohemiancoding.com/sketch -->
    <title>Media/Bloomberg</title>
    <desc>Created with Sketch.</desc>
    <defs></defs>
    <g id="Symbols" stroke="none" stroke-width="1" fill="none" fill-rule="evenodd">
        <g id="Media/Bloomberg" fill-rule="nonzero" fill="#FFFFFF">
            <path d="M447.789,74.937 L465.854,74.937 C466.55,77.221 468.933,79.506 473.4,79.506 C479.452,79.506 481.539,75.732 481.539,70.172 L481.539,66.203 L481.14,66.203 C478.164,69.678 474.191,72.259 468.336,72.259 C456.822,72.259 446.797,63.721 446.797,47.047 C446.797,31.761 455.035,19.851 467.443,19.851 C474.59,19.851 478.958,22.729 481.836,27.295 L482.132,27.295 L482.132,21.44 L499.999,21.44 L499.999,67.692 C499.999,76.228 497.023,82.878 492.556,86.85 C487.892,91.017 481.239,92.705 473.697,92.705 C459.502,92.705 449.576,86.85 447.789,74.937 L447.789,74.937 Z M482.33,46.154 C482.33,39.503 479.156,34.145 473.697,34.145 C468.435,34.145 465.06,38.908 465.06,46.154 C465.06,53.301 468.435,58.461 473.697,58.461 C479.156,58.461 482.33,53.202 482.33,46.154 L482.33,46.154 Z M426.847,30.572 L427.144,30.572 C431.014,23.127 436.077,20.348 442.528,20.348 C444.015,20.348 445.011,20.547 445.604,20.844 L445.604,37.221 L445.208,37.221 C434.192,35.237 427.74,40.498 427.74,52.507 L427.74,74.839 L408.98,74.839 L408.98,21.441 L426.847,21.441 L426.847,30.572 L426.847,30.572 Z M0,-3.55271368e-15 L36.726,-3.55271368e-15 C43.672,-3.55271368e-15 49.032,1.688 52.807,4.764 C57.072,8.238 59.357,13.4 59.357,19.553 C59.357,26.7 56.479,31.167 50.522,33.945 L50.522,34.244 C58.266,36.823 62.729,43.77 62.729,52.208 C62.729,60.248 59.653,66.5 54.59,70.273 C50.324,73.35 44.767,74.839 37.422,74.839 L0,74.839 L0,-3.55271368e-15 Z M34.94,58.262 C39.406,58.262 42.679,55.582 42.679,50.621 C42.679,45.458 39.106,42.978 34.841,42.978 L20.349,42.978 L20.349,58.262 L34.94,58.262 Z M33.054,29.279 C37.023,29.279 39.901,27.097 39.901,22.729 C39.901,18.462 36.924,16.377 32.955,16.377 L20.349,16.377 L20.349,29.279 L33.054,29.279 L33.054,29.279 Z M66.112,-3.55271368e-15 L85.367,-3.55271368e-15 L85.367,74.839 L66.112,74.839 L66.112,-3.55271368e-15 Z M89.043,48.237 C89.043,31.364 99.961,19.95 116.832,19.95 C133.707,19.95 144.427,31.364 144.427,48.237 C144.427,65.211 133.707,76.524 116.832,76.524 C99.961,76.524 89.043,65.211 89.043,48.237 L89.043,48.237 Z M125.37,48.237 C125.37,38.908 122.39,33.052 116.634,33.052 C110.879,33.052 108.1,38.908 108.1,48.237 C108.1,57.667 110.879,63.523 116.634,63.523 C122.39,63.523 125.37,57.667 125.37,48.237 Z M146.618,48.237 C146.618,31.364 157.536,19.95 174.407,19.95 C191.282,19.95 202.002,31.364 202.002,48.237 C202.002,65.211 191.282,76.524 174.407,76.524 C157.536,76.524 146.618,65.211 146.618,48.237 Z M182.945,48.237 C182.945,38.908 179.965,33.052 174.209,33.052 C168.454,33.052 165.675,38.908 165.675,48.237 C165.675,57.667 168.454,63.523 174.209,63.523 C179.965,63.523 182.945,57.667 182.945,48.237 Z M205.678,21.44 L223.545,21.44 L223.545,29.478 L223.842,29.478 C227.415,23.225 232.277,19.851 239.922,19.851 C246.67,19.851 251.734,23.225 254.315,29.081 L254.611,29.081 C258.979,22.033 264.636,19.851 271.186,19.851 C283.594,19.851 288.954,28.982 288.954,41.29 L288.954,74.838 L270.194,74.838 L270.194,44.664 C270.194,39.204 268.506,35.631 263.743,35.631 C259.078,35.631 256.694,39.999 256.694,45.757 L256.694,74.838 L237.938,74.838 L237.938,44.664 C237.938,39.204 236.25,35.631 231.487,35.631 C226.818,35.631 224.439,39.999 224.439,45.757 L224.439,74.838 L205.678,74.838 L205.678,21.44 L205.678,21.44 Z M311.896,67.891 L311.699,67.891 L311.699,74.839 L293.832,74.839 L293.832,-3.55271368e-15 L312.592,-3.55271368e-15 L312.592,26.998 L312.889,26.998 C316.462,22.334 321.225,19.851 328.076,19.851 C341.476,19.851 349.216,31.959 349.216,48.04 C349.216,66.203 340.78,76.625 326.886,76.625 C321.126,76.625 315.173,73.846 311.896,67.891 Z M330.159,47.842 C330.159,39.205 326.985,33.647 321.324,33.647 C315.569,33.647 311.896,39.205 311.896,47.842 C311.896,56.376 315.569,62.035 321.324,62.035 C327.084,62.035 330.159,56.475 330.159,47.842 Z M351.603,48.04 C351.603,31.364 362.62,19.753 378.602,19.753 C386.543,19.753 392.698,22.233 397.362,26.7 C403.517,32.655 406.296,41.984 406.094,53.003 L370.265,53.003 C371.06,59.654 374.234,63.027 379.89,63.027 C383.167,63.027 386.045,61.539 387.239,57.966 L405.3,57.966 C402.126,70.172 392.698,76.327 379.298,76.327 C362.723,76.327 351.603,65.113 351.603,48.04 Z M370.265,42.482 L387.338,42.482 C387.037,36.031 383.464,32.655 378.997,32.655 C373.839,32.655 370.961,36.327 370.265,42.482 Z" id="Combined-Shape"></path>
        </g>
    </g>
</svg>